<svg xmlns="http://www.w3.org/2000/svg" xmlns:xlink="http://www.w3.org/1999/xlink" viewBox="0 0 524.64 779.04"><defs><style>.cls-1{isolation:isolate;}</style></defs><g id="Слой_2" data-name="Слой 2"><image width="1093" height="1623" transform="scale(0.48)" xlink:href="LLLL1.png"/></g><g id="ornament"><image id="Ball" class="cls-1" width="150" height="183" transform="translate(107.95 311) scale(0.47)" xlink:href="../../../../../../../Downloads/F92577A4.png"/><image id="Ball-2" data-name="Ball" class="cls-1" width="158" height="194" transform="translate(77.46 485.53) scale(0.47)" xlink:href="../../../../../../../Downloads/F92577A5.png"/><image id="Ball-3" data-name="Ball" class="cls-1" width="156" height="192" transform="translate(375 367.03) scale(0.48)" xlink:href="../../../../../../../Downloads/F92577A3.png"/><image id="Ball-4" data-name="Ball" class="cls-1" width="158" height="192" transform="translate(445.06 538.89) scale(0.48)" xlink:href="../../../../../../../Downloads/F92577AC.png"/><image id="Candy" class="cls-1" width="92" height="231" transform="translate(3.3 605.41) scale(0.48)" xlink:href="../../../../../../../Downloads/F92577AF.png"/><image id="Candy-2" data-name="Candy" class="cls-1" width="102" height="206" transform="translate(348.38 148.77) scale(0.47)" xlink:href="../../../../../../../Downloads/F92577AD.png"/><image id="Ball-5" data-name="Ball" class="cls-1" width="165" height="200" transform="translate(62.98 625.77) scale(0.48)" xlink:href="../../../../../../../Downloads/F92577A2.png"/><image id="Ball-6" data-name="Ball" class="cls-1" width="148" height="177" transform="translate(162.65 151.66) scale(0.47)" xlink:href="../../../../../../../Downloads/F92577A6.png"/><image id="Ball-7" data-name="Ball" class="cls-1" width="163" height="194" transform="translate(235.47 459.46) scale(0.47)" xlink:href="../../../../../../../Downloads/F92577A7.png"/><image id="Ball-8" data-name="Ball" class="cls-1" width="160" height="192" transform="translate(296.34 239.22) scale(0.47)" xlink:href="../../../../../../../Downloads/26A4B03.png"/><image id="Ball-9" data-name="Ball" class="cls-1" width="129" height="158" transform="translate(291.57 91.43) scale(0.47)" xlink:href="../../../../../../../Downloads/26A4B01.png"/><image id="Ball-10" data-name="Ball" class="cls-1" width="179" height="219" transform="translate(267 623.83) scale(0.48)" xlink:href="../../../../../../../Downloads/26A4B07.png"/><image id="Candy-3" data-name="Candy" class="cls-1" width="144" height="227" transform="translate(181.04 242.58) scale(0.48)" xlink:href="../../../../../../../Downloads/26A4B02.png"/><image id="Candy-4" data-name="Candy" class="cls-1" width="117" height="240" transform="translate(373.05 540.36) scale(0.47)" xlink:href="../../../../../../../Downloads/26A4B1D.png"/><image id="Candy-5" data-name="Candy" class="cls-1" width="110" height="242" transform="translate(163.56 507.82) scale(0.47)" xlink:href="../../../../../../../Downloads/26A4B1E.png"/><image id="Pryanik" class="cls-1" width="175" height="202" transform="translate(242.11 177.29) scale(0.48)" xlink:href="../../../../../../../Downloads/26A4B1F.png"/><image id="Pryanik-2" data-name="Pryanik" class="cls-1" width="167" height="192" transform="translate(397.89 642.19) scale(0.47)" xlink:href="../../../../../../../Downloads/26A4B04.png"/></g></svg>